<svg xmlns="http://www.w3.org/2000/svg" viewBox="0 0 900 1200" width="900" height="1200" role="img"><defs><filter id="grain22" x="0" y="0" width="100%" height="100%">
      <feTurbulence type="fractalNoise" baseFrequency="0.85" numOctaves="4" seed="22" result="n"/>
      <feColorMatrix type="saturate" values="0" in="n" result="ng"/>
      <feComponentTransfer in="ng" result="nc">
        <feFuncA type="linear" slope="0.22"/>
      </feComponentTransfer>
      <feBlend mode="overlay" in="SourceGraphic" in2="nc"/>
    </filter><linearGradient id="vig22" x1="0" y1="0" x2="0" y2="1">
        <stop offset="0%" stop-color="#080808" stop-opacity="0.15"/>
        <stop offset="62%" stop-color="#080808" stop-opacity="0.55"/>
        <stop offset="100%" stop-color="#080808" stop-opacity="0.95"/>
      </linearGradient><clipPath id="clip22"><rect width="900" height="1200"/></clipPath></defs><g clip-path="url(#clip22)" filter="url(#grain22)"><rect width="900" height="1200" fill="#121212"/><polygon points="198,0 540,0 234,1200 -108,1200" fill="#005C35" opacity="0.85"/><polygon points="540,0 855,0 549,1200 234,1200" fill="#080808" opacity="0.55"/><g opacity="0.5"><circle cx="20.5" cy="20.0" r="13.52" fill="#A0A0A0"/><circle cx="61.4" cy="20.0" r="15.92" fill="#A0A0A0"/><circle cx="102.3" cy="20.0" r="16.39" fill="#A0A0A0"/><circle cx="143.2" cy="20.0" r="13.17" fill="#A0A0A0"/><circle cx="184.1" cy="20.0" r="17.26" fill="#A0A0A0"/><circle cx="225.0" cy="20.0" r="13.45" fill="#A0A0A0"/><circle cx="265.9" cy="20.0" r="17.93" fill="#A0A0A0"/><circle cx="306.8" cy="20.0" r="18.23" fill="#A0A0A0"/><circle cx="347.7" cy="20.0" r="16.40" fill="#A0A0A0"/><circle cx="388.6" cy="20.0" r="13.26" fill="#A0A0A0"/><circle cx="429.5" cy="20.0" r="16.35" fill="#A0A0A0"/><circle cx="470.5" cy="20.0" r="15.48" fill="#A0A0A0"/><circle cx="511.4" cy="20.0" r="19.42" fill="#A0A0A0"/><circle cx="552.3" cy="20.0" r="13.82" fill="#A0A0A0"/><circle cx="593.2" cy="20.0" r="18.78" fill="#A0A0A0"/><circle cx="634.1" cy="20.0" r="19.73" fill="#A0A0A0"/><circle cx="675.0" cy="20.0" r="17.92" fill="#A0A0A0"/><circle cx="715.9" cy="20.0" r="18.49" fill="#A0A0A0"/><circle cx="756.8" cy="20.0" r="14.22" fill="#A0A0A0"/><circle cx="797.7" cy="20.0" r="19.63" fill="#A0A0A0"/><circle cx="838.6" cy="20.0" r="16.27" fill="#A0A0A0"/><circle cx="879.5" cy="20.0" r="19.46" fill="#A0A0A0"/><circle cx="20.5" cy="60.0" r="18.52" fill="#A0A0A0"/><circle cx="61.4" cy="60.0" r="13.54" fill="#A0A0A0"/><circle cx="102.3" cy="60.0" r="17.67" fill="#A0A0A0"/><circle cx="143.2" cy="60.0" r="18.62" fill="#A0A0A0"/><circle cx="184.1" cy="60.0" r="12.88" fill="#A0A0A0"/><circle cx="225.0" cy="60.0" r="14.77" fill="#A0A0A0"/><circle cx="265.9" cy="60.0" r="17.46" fill="#A0A0A0"/><circle cx="306.8" cy="60.0" r="13.50" fill="#A0A0A0"/><circle cx="347.7" cy="60.0" r="18.39" fill="#A0A0A0"/><circle cx="388.6" cy="60.0" r="14.27" fill="#A0A0A0"/><circle cx="429.5" cy="60.0" r="17.85" fill="#A0A0A0"/><circle cx="470.5" cy="60.0" r="13.39" fill="#A0A0A0"/><circle cx="511.4" cy="60.0" r="15.77" fill="#A0A0A0"/><circle cx="552.3" cy="60.0" r="18.55" fill="#A0A0A0"/><circle cx="593.2" cy="60.0" r="13.82" fill="#A0A0A0"/><circle cx="634.1" cy="60.0" r="14.19" fill="#A0A0A0"/><circle cx="675.0" cy="60.0" r="15.80" fill="#A0A0A0"/><circle cx="715.9" cy="60.0" r="14.56" fill="#A0A0A0"/><circle cx="756.8" cy="60.0" r="12.69" fill="#A0A0A0"/><circle cx="797.7" cy="60.0" r="13.65" fill="#A0A0A0"/><circle cx="838.6" cy="60.0" r="13.51" fill="#A0A0A0"/><circle cx="879.5" cy="60.0" r="18.66" fill="#A0A0A0"/><circle cx="20.5" cy="100.0" r="16.35" fill="#A0A0A0"/><circle cx="61.4" cy="100.0" r="17.73" fill="#A0A0A0"/><circle cx="102.3" cy="100.0" r="13.08" fill="#A0A0A0"/><circle cx="143.2" cy="100.0" r="17.02" fill="#A0A0A0"/><circle cx="184.1" cy="100.0" r="12.73" fill="#A0A0A0"/><circle cx="225.0" cy="100.0" r="15.39" fill="#A0A0A0"/><circle cx="265.9" cy="100.0" r="16.07" fill="#A0A0A0"/><circle cx="306.8" cy="100.0" r="14.30" fill="#A0A0A0"/><circle cx="347.7" cy="100.0" r="17.58" fill="#A0A0A0"/><circle cx="388.6" cy="100.0" r="15.55" fill="#A0A0A0"/><circle cx="429.5" cy="100.0" r="15.71" fill="#A0A0A0"/><circle cx="470.5" cy="100.0" r="17.64" fill="#A0A0A0"/><circle cx="511.4" cy="100.0" r="12.67" fill="#A0A0A0"/><circle cx="552.3" cy="100.0" r="18.35" fill="#A0A0A0"/><circle cx="593.2" cy="100.0" r="16.03" fill="#A0A0A0"/><circle cx="634.1" cy="100.0" r="14.52" fill="#A0A0A0"/><circle cx="675.0" cy="100.0" r="17.10" fill="#A0A0A0"/><circle cx="715.9" cy="100.0" r="13.69" fill="#A0A0A0"/><circle cx="756.8" cy="100.0" r="18.34" fill="#A0A0A0"/><circle cx="797.7" cy="100.0" r="15.69" fill="#A0A0A0"/><circle cx="838.6" cy="100.0" r="14.30" fill="#A0A0A0"/><circle cx="879.5" cy="100.0" r="16.89" fill="#A0A0A0"/><circle cx="20.5" cy="140.0" r="14.28" fill="#A0A0A0"/><circle cx="61.4" cy="140.0" r="12.64" fill="#A0A0A0"/><circle cx="102.3" cy="140.0" r="16.14" fill="#A0A0A0"/><circle cx="143.2" cy="140.0" r="11.85" fill="#A0A0A0"/><circle cx="184.1" cy="140.0" r="16.60" fill="#A0A0A0"/><circle cx="225.0" cy="140.0" r="13.12" fill="#A0A0A0"/><circle cx="265.9" cy="140.0" r="15.49" fill="#A0A0A0"/><circle cx="306.8" cy="140.0" r="17.62" fill="#A0A0A0"/><circle cx="347.7" cy="140.0" r="15.16" fill="#A0A0A0"/><circle cx="388.6" cy="140.0" r="15.64" fill="#A0A0A0"/><circle cx="429.5" cy="140.0" r="13.48" fill="#A0A0A0"/><circle cx="470.5" cy="140.0" r="11.56" fill="#A0A0A0"/><circle cx="511.4" cy="140.0" r="11.76" fill="#A0A0A0"/><circle cx="552.3" cy="140.0" r="12.47" fill="#A0A0A0"/><circle cx="593.2" cy="140.0" r="15.35" fill="#A0A0A0"/><circle cx="634.1" cy="140.0" r="14.22" fill="#A0A0A0"/><circle cx="675.0" cy="140.0" r="14.71" fill="#A0A0A0"/><circle cx="715.9" cy="140.0" r="17.07" fill="#A0A0A0"/><circle cx="756.8" cy="140.0" r="12.37" fill="#A0A0A0"/><circle cx="797.7" cy="140.0" r="12.95" fill="#A0A0A0"/><circle cx="838.6" cy="140.0" r="15.58" fill="#A0A0A0"/><circle cx="879.5" cy="140.0" r="11.69" fill="#A0A0A0"/><circle cx="20.5" cy="180.0" r="11.12" fill="#A0A0A0"/><circle cx="61.4" cy="180.0" r="13.21" fill="#A0A0A0"/><circle cx="102.3" cy="180.0" r="11.74" fill="#A0A0A0"/><circle cx="143.2" cy="180.0" r="13.22" fill="#A0A0A0"/><circle cx="184.1" cy="180.0" r="12.44" fill="#A0A0A0"/><circle cx="225.0" cy="180.0" r="14.57" fill="#A0A0A0"/><circle cx="265.9" cy="180.0" r="14.60" fill="#A0A0A0"/><circle cx="306.8" cy="180.0" r="12.32" fill="#A0A0A0"/><circle cx="347.7" cy="180.0" r="14.81" fill="#A0A0A0"/><circle cx="388.6" cy="180.0" r="13.92" fill="#A0A0A0"/><circle cx="429.5" cy="180.0" r="11.91" fill="#A0A0A0"/><circle cx="470.5" cy="180.0" r="16.66" fill="#A0A0A0"/><circle cx="511.4" cy="180.0" r="12.55" fill="#A0A0A0"/><circle cx="552.3" cy="180.0" r="11.99" fill="#A0A0A0"/><circle cx="593.2" cy="180.0" r="11.68" fill="#A0A0A0"/><circle cx="634.1" cy="180.0" r="14.89" fill="#A0A0A0"/><circle cx="675.0" cy="180.0" r="16.27" fill="#A0A0A0"/><circle cx="715.9" cy="180.0" r="15.74" fill="#A0A0A0"/><circle cx="756.8" cy="180.0" r="13.49" fill="#A0A0A0"/><circle cx="797.7" cy="180.0" r="12.67" fill="#A0A0A0"/><circle cx="838.6" cy="180.0" r="11.18" fill="#A0A0A0"/><circle cx="879.5" cy="180.0" r="14.93" fill="#A0A0A0"/><circle cx="20.5" cy="220.0" r="13.86" fill="#A0A0A0"/><circle cx="61.4" cy="220.0" r="12.66" fill="#A0A0A0"/><circle cx="102.3" cy="220.0" r="14.34" fill="#A0A0A0"/><circle cx="143.2" cy="220.0" r="13.19" fill="#A0A0A0"/><circle cx="184.1" cy="220.0" r="15.99" fill="#A0A0A0"/><circle cx="225.0" cy="220.0" r="14.84" fill="#A0A0A0"/><circle cx="265.9" cy="220.0" r="12.08" fill="#A0A0A0"/><circle cx="306.8" cy="220.0" r="15.80" fill="#A0A0A0"/><circle cx="347.7" cy="220.0" r="10.91" fill="#A0A0A0"/><circle cx="388.6" cy="220.0" r="13.69" fill="#A0A0A0"/><circle cx="429.5" cy="220.0" r="12.97" fill="#A0A0A0"/><circle cx="470.5" cy="220.0" r="12.02" fill="#A0A0A0"/><circle cx="511.4" cy="220.0" r="11.00" fill="#A0A0A0"/><circle cx="552.3" cy="220.0" r="15.09" fill="#A0A0A0"/><circle cx="593.2" cy="220.0" r="10.73" fill="#A0A0A0"/><circle cx="634.1" cy="220.0" r="13.80" fill="#A0A0A0"/><circle cx="675.0" cy="220.0" r="16.02" fill="#A0A0A0"/><circle cx="715.9" cy="220.0" r="11.47" fill="#A0A0A0"/><circle cx="756.8" cy="220.0" r="11.80" fill="#A0A0A0"/><circle cx="797.7" cy="220.0" r="14.12" fill="#A0A0A0"/><circle cx="838.6" cy="220.0" r="13.55" fill="#A0A0A0"/><circle cx="879.5" cy="220.0" r="14.31" fill="#A0A0A0"/><circle cx="20.5" cy="260.0" r="14.65" fill="#A0A0A0"/><circle cx="61.4" cy="260.0" r="11.17" fill="#A0A0A0"/><circle cx="102.3" cy="260.0" r="11.91" fill="#A0A0A0"/><circle cx="143.2" cy="260.0" r="11.86" fill="#A0A0A0"/><circle cx="184.1" cy="260.0" r="10.48" fill="#A0A0A0"/><circle cx="225.0" cy="260.0" r="15.07" fill="#A0A0A0"/><circle cx="265.9" cy="260.0" r="14.49" fill="#A0A0A0"/><circle cx="306.8" cy="260.0" r="14.12" fill="#A0A0A0"/><circle cx="347.7" cy="260.0" r="10.25" fill="#A0A0A0"/><circle cx="388.6" cy="260.0" r="14.82" fill="#A0A0A0"/><circle cx="429.5" cy="260.0" r="14.28" fill="#A0A0A0"/><circle cx="470.5" cy="260.0" r="12.76" fill="#A0A0A0"/><circle cx="511.4" cy="260.0" r="14.26" fill="#A0A0A0"/><circle cx="552.3" cy="260.0" r="12.69" fill="#A0A0A0"/><circle cx="593.2" cy="260.0" r="11.45" fill="#A0A0A0"/><circle cx="634.1" cy="260.0" r="10.79" fill="#A0A0A0"/><circle cx="675.0" cy="260.0" r="11.49" fill="#A0A0A0"/><circle cx="715.9" cy="260.0" r="10.43" fill="#A0A0A0"/><circle cx="756.8" cy="260.0" r="12.05" fill="#A0A0A0"/><circle cx="797.7" cy="260.0" r="14.31" fill="#A0A0A0"/><circle cx="838.6" cy="260.0" r="14.01" fill="#A0A0A0"/><circle cx="879.5" cy="260.0" r="14.83" fill="#A0A0A0"/><circle cx="20.5" cy="300.0" r="13.49" fill="#A0A0A0"/><circle cx="61.4" cy="300.0" r="11.16" fill="#A0A0A0"/><circle cx="102.3" cy="300.0" r="12.66" fill="#A0A0A0"/><circle cx="143.2" cy="300.0" r="12.05" fill="#A0A0A0"/><circle cx="184.1" cy="300.0" r="13.89" fill="#A0A0A0"/><circle cx="225.0" cy="300.0" r="12.50" fill="#A0A0A0"/><circle cx="265.9" cy="300.0" r="11.16" fill="#A0A0A0"/><circle cx="306.8" cy="300.0" r="13.12" fill="#A0A0A0"/><circle cx="347.7" cy="300.0" r="14.81" fill="#A0A0A0"/><circle cx="388.6" cy="300.0" r="10.91" fill="#A0A0A0"/><circle cx="429.5" cy="300.0" r="14.36" fill="#A0A0A0"/><circle cx="470.5" cy="300.0" r="9.86" fill="#A0A0A0"/><circle cx="511.4" cy="300.0" r="11.13" fill="#A0A0A0"/><circle cx="552.3" cy="300.0" r="11.01" fill="#A0A0A0"/><circle cx="593.2" cy="300.0" r="13.65" fill="#A0A0A0"/><circle cx="634.1" cy="300.0" r="14.70" fill="#A0A0A0"/><circle cx="675.0" cy="300.0" r="13.67" fill="#A0A0A0"/><circle cx="715.9" cy="300.0" r="11.48" fill="#A0A0A0"/><circle cx="756.8" cy="300.0" r="14.36" fill="#A0A0A0"/><circle cx="797.7" cy="300.0" r="11.49" fill="#A0A0A0"/><circle cx="838.6" cy="300.0" r="11.02" fill="#A0A0A0"/><circle cx="879.5" cy="300.0" r="14.51" fill="#A0A0A0"/><circle cx="20.5" cy="340.0" r="12.47" fill="#A0A0A0"/><circle cx="61.4" cy="340.0" r="12.78" fill="#A0A0A0"/><circle cx="102.3" cy="340.0" r="12.64" fill="#A0A0A0"/><circle cx="143.2" cy="340.0" r="14.20" fill="#A0A0A0"/><circle cx="184.1" cy="340.0" r="11.67" fill="#A0A0A0"/><circle cx="225.0" cy="340.0" r="13.51" fill="#A0A0A0"/><circle cx="265.9" cy="340.0" r="12.80" fill="#A0A0A0"/><circle cx="306.8" cy="340.0" r="13.60" fill="#A0A0A0"/><circle cx="347.7" cy="340.0" r="11.51" fill="#A0A0A0"/><circle cx="388.6" cy="340.0" r="12.94" fill="#A0A0A0"/><circle cx="429.5" cy="340.0" r="12.17" fill="#A0A0A0"/><circle cx="470.5" cy="340.0" r="10.86" fill="#A0A0A0"/><circle cx="511.4" cy="340.0" r="10.39" fill="#A0A0A0"/><circle cx="552.3" cy="340.0" r="12.43" fill="#A0A0A0"/><circle cx="593.2" cy="340.0" r="9.72" fill="#A0A0A0"/><circle cx="634.1" cy="340.0" r="13.86" fill="#A0A0A0"/><circle cx="675.0" cy="340.0" r="10.05" fill="#A0A0A0"/><circle cx="715.9" cy="340.0" r="9.47" fill="#A0A0A0"/><circle cx="756.8" cy="340.0" r="9.86" fill="#A0A0A0"/><circle cx="797.7" cy="340.0" r="13.95" fill="#A0A0A0"/><circle cx="838.6" cy="340.0" r="11.05" fill="#A0A0A0"/><circle cx="879.5" cy="340.0" r="10.04" fill="#A0A0A0"/><circle cx="20.5" cy="380.0" r="9.02" fill="#A0A0A0"/><circle cx="61.4" cy="380.0" r="9.08" fill="#A0A0A0"/><circle cx="102.3" cy="380.0" r="12.17" fill="#A0A0A0"/><circle cx="143.2" cy="380.0" r="11.89" fill="#A0A0A0"/><circle cx="184.1" cy="380.0" r="12.19" fill="#A0A0A0"/><circle cx="225.0" cy="380.0" r="12.38" fill="#A0A0A0"/><circle cx="265.9" cy="380.0" r="9.20" fill="#A0A0A0"/><circle cx="306.8" cy="380.0" r="11.69" fill="#A0A0A0"/><circle cx="347.7" cy="380.0" r="10.61" fill="#A0A0A0"/><circle cx="388.6" cy="380.0" r="12.76" fill="#A0A0A0"/><circle cx="429.5" cy="380.0" r="12.77" fill="#A0A0A0"/><circle cx="470.5" cy="380.0" r="13.11" fill="#A0A0A0"/><circle cx="511.4" cy="380.0" r="9.20" fill="#A0A0A0"/><circle cx="552.3" cy="380.0" r="13.00" fill="#A0A0A0"/><circle cx="593.2" cy="380.0" r="13.22" fill="#A0A0A0"/><circle cx="634.1" cy="380.0" r="13.36" fill="#A0A0A0"/><circle cx="675.0" cy="380.0" r="9.39" fill="#A0A0A0"/><circle cx="715.9" cy="380.0" r="9.86" fill="#A0A0A0"/><circle cx="756.8" cy="380.0" r="9.42" fill="#A0A0A0"/><circle cx="797.7" cy="380.0" r="9.05" fill="#A0A0A0"/><circle cx="838.6" cy="380.0" r="12.91" fill="#A0A0A0"/><circle cx="879.5" cy="380.0" r="12.74" fill="#A0A0A0"/><circle cx="20.5" cy="420.0" r="11.30" fill="#A0A0A0"/><circle cx="61.4" cy="420.0" r="12.16" fill="#A0A0A0"/><circle cx="102.3" cy="420.0" r="11.29" fill="#A0A0A0"/><circle cx="143.2" cy="420.0" r="9.74" fill="#A0A0A0"/><circle cx="184.1" cy="420.0" r="8.89" fill="#A0A0A0"/><circle cx="225.0" cy="420.0" r="8.88" fill="#A0A0A0"/><circle cx="265.9" cy="420.0" r="11.85" fill="#A0A0A0"/><circle cx="306.8" cy="420.0" r="9.37" fill="#A0A0A0"/><circle cx="347.7" cy="420.0" r="9.88" fill="#A0A0A0"/><circle cx="388.6" cy="420.0" r="10.35" fill="#A0A0A0"/><circle cx="429.5" cy="420.0" r="8.54" fill="#A0A0A0"/><circle cx="470.5" cy="420.0" r="9.60" fill="#A0A0A0"/><circle cx="511.4" cy="420.0" r="9.72" fill="#A0A0A0"/><circle cx="552.3" cy="420.0" r="11.67" fill="#A0A0A0"/><circle cx="593.2" cy="420.0" r="10.10" fill="#A0A0A0"/><circle cx="634.1" cy="420.0" r="9.89" fill="#A0A0A0"/><circle cx="675.0" cy="420.0" r="12.78" fill="#A0A0A0"/><circle cx="715.9" cy="420.0" r="10.71" fill="#A0A0A0"/><circle cx="756.8" cy="420.0" r="12.28" fill="#A0A0A0"/><circle cx="797.7" cy="420.0" r="11.23" fill="#A0A0A0"/><circle cx="838.6" cy="420.0" r="8.58" fill="#A0A0A0"/><circle cx="879.5" cy="420.0" r="10.30" fill="#A0A0A0"/><circle cx="20.5" cy="460.0" r="9.86" fill="#A0A0A0"/><circle cx="61.4" cy="460.0" r="11.30" fill="#A0A0A0"/><circle cx="102.3" cy="460.0" r="9.48" fill="#A0A0A0"/><circle cx="143.2" cy="460.0" r="11.00" fill="#A0A0A0"/><circle cx="184.1" cy="460.0" r="10.29" fill="#A0A0A0"/><circle cx="225.0" cy="460.0" r="8.92" fill="#A0A0A0"/><circle cx="265.9" cy="460.0" r="11.68" fill="#A0A0A0"/><circle cx="306.8" cy="460.0" r="8.39" fill="#A0A0A0"/><circle cx="347.7" cy="460.0" r="11.50" fill="#A0A0A0"/><circle cx="388.6" cy="460.0" r="8.73" fill="#A0A0A0"/><circle cx="429.5" cy="460.0" r="8.00" fill="#A0A0A0"/><circle cx="470.5" cy="460.0" r="8.86" fill="#A0A0A0"/><circle cx="511.4" cy="460.0" r="11.25" fill="#A0A0A0"/><circle cx="552.3" cy="460.0" r="12.17" fill="#A0A0A0"/><circle cx="593.2" cy="460.0" r="8.02" fill="#A0A0A0"/><circle cx="634.1" cy="460.0" r="10.09" fill="#A0A0A0"/><circle cx="675.0" cy="460.0" r="10.10" fill="#A0A0A0"/><circle cx="715.9" cy="460.0" r="11.40" fill="#A0A0A0"/><circle cx="756.8" cy="460.0" r="8.79" fill="#A0A0A0"/><circle cx="797.7" cy="460.0" r="10.11" fill="#A0A0A0"/><circle cx="838.6" cy="460.0" r="9.48" fill="#A0A0A0"/><circle cx="879.5" cy="460.0" r="11.55" fill="#A0A0A0"/><circle cx="20.5" cy="500.0" r="8.60" fill="#A0A0A0"/><circle cx="61.4" cy="500.0" r="11.36" fill="#A0A0A0"/><circle cx="102.3" cy="500.0" r="8.70" fill="#A0A0A0"/><circle cx="143.2" cy="500.0" r="8.42" fill="#A0A0A0"/><circle cx="184.1" cy="500.0" r="10.37" fill="#A0A0A0"/><circle cx="225.0" cy="500.0" r="9.56" fill="#A0A0A0"/><circle cx="265.9" cy="500.0" r="8.00" fill="#A0A0A0"/><circle cx="306.8" cy="500.0" r="10.12" fill="#A0A0A0"/><circle cx="347.7" cy="500.0" r="7.88" fill="#A0A0A0"/><circle cx="388.6" cy="500.0" r="10.73" fill="#A0A0A0"/><circle cx="429.5" cy="500.0" r="10.36" fill="#A0A0A0"/><circle cx="470.5" cy="500.0" r="10.72" fill="#A0A0A0"/><circle cx="511.4" cy="500.0" r="10.08" fill="#A0A0A0"/><circle cx="552.3" cy="500.0" r="8.99" fill="#A0A0A0"/><circle cx="593.2" cy="500.0" r="9.17" fill="#A0A0A0"/><circle cx="634.1" cy="500.0" r="9.14" fill="#A0A0A0"/><circle cx="675.0" cy="500.0" r="11.14" fill="#A0A0A0"/><circle cx="715.9" cy="500.0" r="7.90" fill="#A0A0A0"/><circle cx="756.8" cy="500.0" r="11.13" fill="#A0A0A0"/><circle cx="797.7" cy="500.0" r="7.66" fill="#A0A0A0"/><circle cx="838.6" cy="500.0" r="8.38" fill="#A0A0A0"/><circle cx="879.5" cy="500.0" r="8.61" fill="#A0A0A0"/><circle cx="20.5" cy="540.0" r="10.53" fill="#A0A0A0"/><circle cx="61.4" cy="540.0" r="9.01" fill="#A0A0A0"/><circle cx="102.3" cy="540.0" r="8.55" fill="#A0A0A0"/><circle cx="143.2" cy="540.0" r="10.46" fill="#A0A0A0"/><circle cx="184.1" cy="540.0" r="8.00" fill="#A0A0A0"/><circle cx="225.0" cy="540.0" r="8.86" fill="#A0A0A0"/><circle cx="265.9" cy="540.0" r="9.13" fill="#A0A0A0"/><circle cx="306.8" cy="540.0" r="9.97" fill="#A0A0A0"/><circle cx="347.7" cy="540.0" r="9.96" fill="#A0A0A0"/><circle cx="388.6" cy="540.0" r="9.56" fill="#A0A0A0"/><circle cx="429.5" cy="540.0" r="8.43" fill="#A0A0A0"/><circle cx="470.5" cy="540.0" r="8.35" fill="#A0A0A0"/><circle cx="511.4" cy="540.0" r="7.70" fill="#A0A0A0"/><circle cx="552.3" cy="540.0" r="10.31" fill="#A0A0A0"/><circle cx="593.2" cy="540.0" r="9.62" fill="#A0A0A0"/><circle cx="634.1" cy="540.0" r="9.92" fill="#A0A0A0"/><circle cx="675.0" cy="540.0" r="7.75" fill="#A0A0A0"/><circle cx="715.9" cy="540.0" r="8.77" fill="#A0A0A0"/><circle cx="756.8" cy="540.0" r="10.04" fill="#A0A0A0"/><circle cx="797.7" cy="540.0" r="9.31" fill="#A0A0A0"/><circle cx="838.6" cy="540.0" r="7.59" fill="#A0A0A0"/><circle cx="879.5" cy="540.0" r="8.86" fill="#A0A0A0"/><circle cx="20.5" cy="580.0" r="9.81" fill="#A0A0A0"/><circle cx="61.4" cy="580.0" r="7.51" fill="#A0A0A0"/><circle cx="102.3" cy="580.0" r="7.35" fill="#A0A0A0"/><circle cx="143.2" cy="580.0" r="7.74" fill="#A0A0A0"/><circle cx="184.1" cy="580.0" r="9.17" fill="#A0A0A0"/><circle cx="225.0" cy="580.0" r="9.66" fill="#A0A0A0"/><circle cx="265.9" cy="580.0" r="7.21" fill="#A0A0A0"/><circle cx="306.8" cy="580.0" r="7.22" fill="#A0A0A0"/><circle cx="347.7" cy="580.0" r="7.55" fill="#A0A0A0"/><circle cx="388.6" cy="580.0" r="7.83" fill="#A0A0A0"/><circle cx="429.5" cy="580.0" r="8.52" fill="#A0A0A0"/><circle cx="470.5" cy="580.0" r="7.24" fill="#A0A0A0"/><circle cx="511.4" cy="580.0" r="7.83" fill="#A0A0A0"/><circle cx="552.3" cy="580.0" r="7.34" fill="#A0A0A0"/><circle cx="593.2" cy="580.0" r="10.13" fill="#A0A0A0"/><circle cx="634.1" cy="580.0" r="9.26" fill="#A0A0A0"/><circle cx="675.0" cy="580.0" r="7.03" fill="#A0A0A0"/><circle cx="715.9" cy="580.0" r="10.09" fill="#A0A0A0"/><circle cx="756.8" cy="580.0" r="7.03" fill="#A0A0A0"/><circle cx="797.7" cy="580.0" r="8.03" fill="#A0A0A0"/><circle cx="838.6" cy="580.0" r="10.16" fill="#A0A0A0"/><circle cx="879.5" cy="580.0" r="9.49" fill="#A0A0A0"/><circle cx="20.5" cy="620.0" r="8.65" fill="#A0A0A0"/><circle cx="61.4" cy="620.0" r="7.66" fill="#A0A0A0"/><circle cx="102.3" cy="620.0" r="6.87" fill="#A0A0A0"/><circle cx="143.2" cy="620.0" r="8.34" fill="#A0A0A0"/><circle cx="184.1" cy="620.0" r="6.58" fill="#A0A0A0"/><circle cx="225.0" cy="620.0" r="6.91" fill="#A0A0A0"/><circle cx="265.9" cy="620.0" r="7.51" fill="#A0A0A0"/><circle cx="306.8" cy="620.0" r="6.33" fill="#A0A0A0"/><circle cx="347.7" cy="620.0" r="7.54" fill="#A0A0A0"/><circle cx="388.6" cy="620.0" r="8.85" fill="#A0A0A0"/><circle cx="429.5" cy="620.0" r="8.52" fill="#A0A0A0"/><circle cx="470.5" cy="620.0" r="7.88" fill="#A0A0A0"/><circle cx="511.4" cy="620.0" r="8.32" fill="#A0A0A0"/><circle cx="552.3" cy="620.0" r="7.76" fill="#A0A0A0"/><circle cx="593.2" cy="620.0" r="6.69" fill="#A0A0A0"/><circle cx="634.1" cy="620.0" r="8.22" fill="#A0A0A0"/><circle cx="675.0" cy="620.0" r="7.56" fill="#A0A0A0"/><circle cx="715.9" cy="620.0" r="8.68" fill="#A0A0A0"/><circle cx="756.8" cy="620.0" r="9.23" fill="#A0A0A0"/><circle cx="797.7" cy="620.0" r="7.65" fill="#A0A0A0"/><circle cx="838.6" cy="620.0" r="8.13" fill="#A0A0A0"/><circle cx="879.5" cy="620.0" r="8.71" fill="#A0A0A0"/><circle cx="20.5" cy="660.0" r="7.07" fill="#A0A0A0"/><circle cx="61.4" cy="660.0" r="6.48" fill="#A0A0A0"/><circle cx="102.3" cy="660.0" r="8.00" fill="#A0A0A0"/><circle cx="143.2" cy="660.0" r="8.49" fill="#A0A0A0"/><circle cx="184.1" cy="660.0" r="8.16" fill="#A0A0A0"/><circle cx="225.0" cy="660.0" r="7.93" fill="#A0A0A0"/><circle cx="265.9" cy="660.0" r="8.40" fill="#A0A0A0"/><circle cx="306.8" cy="660.0" r="7.87" fill="#A0A0A0"/><circle cx="347.7" cy="660.0" r="7.75" fill="#A0A0A0"/><circle cx="388.6" cy="660.0" r="7.18" fill="#A0A0A0"/><circle cx="429.5" cy="660.0" r="6.74" fill="#A0A0A0"/><circle cx="470.5" cy="660.0" r="7.71" fill="#A0A0A0"/><circle cx="511.4" cy="660.0" r="6.08" fill="#A0A0A0"/><circle cx="552.3" cy="660.0" r="7.07" fill="#A0A0A0"/><circle cx="593.2" cy="660.0" r="8.19" fill="#A0A0A0"/><circle cx="634.1" cy="660.0" r="7.97" fill="#A0A0A0"/><circle cx="675.0" cy="660.0" r="7.72" fill="#A0A0A0"/><circle cx="715.9" cy="660.0" r="6.55" fill="#A0A0A0"/><circle cx="756.8" cy="660.0" r="7.08" fill="#A0A0A0"/><circle cx="797.7" cy="660.0" r="7.18" fill="#A0A0A0"/><circle cx="838.6" cy="660.0" r="7.69" fill="#A0A0A0"/><circle cx="879.5" cy="660.0" r="7.04" fill="#A0A0A0"/><circle cx="20.5" cy="700.0" r="7.25" fill="#A0A0A0"/><circle cx="61.4" cy="700.0" r="7.98" fill="#A0A0A0"/><circle cx="102.3" cy="700.0" r="5.85" fill="#A0A0A0"/><circle cx="143.2" cy="700.0" r="7.19" fill="#A0A0A0"/><circle cx="184.1" cy="700.0" r="7.55" fill="#A0A0A0"/><circle cx="225.0" cy="700.0" r="6.44" fill="#A0A0A0"/><circle cx="265.9" cy="700.0" r="6.73" fill="#A0A0A0"/><circle cx="306.8" cy="700.0" r="8.10" fill="#A0A0A0"/><circle cx="347.7" cy="700.0" r="5.44" fill="#A0A0A0"/><circle cx="388.6" cy="700.0" r="6.88" fill="#A0A0A0"/><circle cx="429.5" cy="700.0" r="5.79" fill="#A0A0A0"/><circle cx="470.5" cy="700.0" r="7.56" fill="#A0A0A0"/><circle cx="511.4" cy="700.0" r="8.01" fill="#A0A0A0"/><circle cx="552.3" cy="700.0" r="6.81" fill="#A0A0A0"/><circle cx="593.2" cy="700.0" r="5.62" fill="#A0A0A0"/><circle cx="634.1" cy="700.0" r="6.97" fill="#A0A0A0"/><circle cx="675.0" cy="700.0" r="6.87" fill="#A0A0A0"/><circle cx="715.9" cy="700.0" r="7.37" fill="#A0A0A0"/><circle cx="756.8" cy="700.0" r="6.79" fill="#A0A0A0"/><circle cx="797.7" cy="700.0" r="7.15" fill="#A0A0A0"/><circle cx="838.6" cy="700.0" r="7.69" fill="#A0A0A0"/><circle cx="879.5" cy="700.0" r="6.82" fill="#A0A0A0"/><circle cx="20.5" cy="740.0" r="5.96" fill="#A0A0A0"/><circle cx="61.4" cy="740.0" r="7.36" fill="#A0A0A0"/><circle cx="102.3" cy="740.0" r="5.44" fill="#A0A0A0"/><circle cx="143.2" cy="740.0" r="6.67" fill="#A0A0A0"/><circle cx="184.1" cy="740.0" r="5.91" fill="#A0A0A0"/><circle cx="225.0" cy="740.0" r="6.88" fill="#A0A0A0"/><circle cx="265.9" cy="740.0" r="5.21" fill="#A0A0A0"/><circle cx="306.8" cy="740.0" r="7.45" fill="#A0A0A0"/><circle cx="347.7" cy="740.0" r="5.81" fill="#A0A0A0"/><circle cx="388.6" cy="740.0" r="5.04" fill="#A0A0A0"/><circle cx="429.5" cy="740.0" r="5.60" fill="#A0A0A0"/><circle cx="470.5" cy="740.0" r="5.93" fill="#A0A0A0"/><circle cx="511.4" cy="740.0" r="4.92" fill="#A0A0A0"/><circle cx="552.3" cy="740.0" r="5.98" fill="#A0A0A0"/><circle cx="593.2" cy="740.0" r="5.98" fill="#A0A0A0"/><circle cx="634.1" cy="740.0" r="6.71" fill="#A0A0A0"/><circle cx="675.0" cy="740.0" r="5.81" fill="#A0A0A0"/><circle cx="715.9" cy="740.0" r="5.58" fill="#A0A0A0"/><circle cx="756.8" cy="740.0" r="5.47" fill="#A0A0A0"/><circle cx="797.7" cy="740.0" r="6.82" fill="#A0A0A0"/><circle cx="838.6" cy="740.0" r="7.34" fill="#A0A0A0"/><circle cx="879.5" cy="740.0" r="6.26" fill="#A0A0A0"/><circle cx="20.5" cy="780.0" r="4.96" fill="#A0A0A0"/><circle cx="61.4" cy="780.0" r="6.34" fill="#A0A0A0"/><circle cx="102.3" cy="780.0" r="5.37" fill="#A0A0A0"/><circle cx="143.2" cy="780.0" r="4.95" fill="#A0A0A0"/><circle cx="184.1" cy="780.0" r="4.75" fill="#A0A0A0"/><circle cx="225.0" cy="780.0" r="6.28" fill="#A0A0A0"/><circle cx="265.9" cy="780.0" r="6.36" fill="#A0A0A0"/><circle cx="306.8" cy="780.0" r="5.95" fill="#A0A0A0"/><circle cx="347.7" cy="780.0" r="5.56" fill="#A0A0A0"/><circle cx="388.6" cy="780.0" r="5.78" fill="#A0A0A0"/><circle cx="429.5" cy="780.0" r="4.98" fill="#A0A0A0"/><circle cx="470.5" cy="780.0" r="6.73" fill="#A0A0A0"/><circle cx="511.4" cy="780.0" r="5.28" fill="#A0A0A0"/><circle cx="552.3" cy="780.0" r="5.96" fill="#A0A0A0"/><circle cx="593.2" cy="780.0" r="6.38" fill="#A0A0A0"/><circle cx="634.1" cy="780.0" r="6.38" fill="#A0A0A0"/><circle cx="675.0" cy="780.0" r="5.55" fill="#A0A0A0"/><circle cx="715.9" cy="780.0" r="5.14" fill="#A0A0A0"/><circle cx="756.8" cy="780.0" r="5.74" fill="#A0A0A0"/><circle cx="797.7" cy="780.0" r="4.74" fill="#A0A0A0"/><circle cx="838.6" cy="780.0" r="6.42" fill="#A0A0A0"/><circle cx="879.5" cy="780.0" r="5.28" fill="#A0A0A0"/><circle cx="20.5" cy="820.0" r="5.81" fill="#A0A0A0"/><circle cx="61.4" cy="820.0" r="4.57" fill="#A0A0A0"/><circle cx="102.3" cy="820.0" r="4.80" fill="#A0A0A0"/><circle cx="143.2" cy="820.0" r="4.54" fill="#A0A0A0"/><circle cx="184.1" cy="820.0" r="4.91" fill="#A0A0A0"/><circle cx="225.0" cy="820.0" r="4.40" fill="#A0A0A0"/><circle cx="265.9" cy="820.0" r="4.00" fill="#A0A0A0"/><circle cx="306.8" cy="820.0" r="5.54" fill="#A0A0A0"/><circle cx="347.7" cy="820.0" r="4.60" fill="#A0A0A0"/><circle cx="388.6" cy="820.0" r="4.52" fill="#A0A0A0"/><circle cx="429.5" cy="820.0" r="4.64" fill="#A0A0A0"/><circle cx="470.5" cy="820.0" r="5.02" fill="#A0A0A0"/><circle cx="511.4" cy="820.0" r="4.91" fill="#A0A0A0"/><circle cx="552.3" cy="820.0" r="5.36" fill="#A0A0A0"/><circle cx="593.2" cy="820.0" r="5.41" fill="#A0A0A0"/><circle cx="634.1" cy="820.0" r="4.77" fill="#A0A0A0"/><circle cx="675.0" cy="820.0" r="5.98" fill="#A0A0A0"/><circle cx="715.9" cy="820.0" r="5.82" fill="#A0A0A0"/><circle cx="756.8" cy="820.0" r="4.12" fill="#A0A0A0"/><circle cx="797.7" cy="820.0" r="5.77" fill="#A0A0A0"/><circle cx="838.6" cy="820.0" r="5.93" fill="#A0A0A0"/><circle cx="879.5" cy="820.0" r="5.67" fill="#A0A0A0"/><circle cx="20.5" cy="860.0" r="3.82" fill="#A0A0A0"/><circle cx="61.4" cy="860.0" r="5.13" fill="#A0A0A0"/><circle cx="102.3" cy="860.0" r="4.76" fill="#A0A0A0"/><circle cx="143.2" cy="860.0" r="3.58" fill="#A0A0A0"/><circle cx="184.1" cy="860.0" r="3.58" fill="#A0A0A0"/><circle cx="225.0" cy="860.0" r="5.36" fill="#A0A0A0"/><circle cx="265.9" cy="860.0" r="4.80" fill="#A0A0A0"/><circle cx="306.8" cy="860.0" r="4.03" fill="#A0A0A0"/><circle cx="347.7" cy="860.0" r="3.75" fill="#A0A0A0"/><circle cx="388.6" cy="860.0" r="3.83" fill="#A0A0A0"/><circle cx="429.5" cy="860.0" r="4.00" fill="#A0A0A0"/><circle cx="470.5" cy="860.0" r="5.03" fill="#A0A0A0"/><circle cx="511.4" cy="860.0" r="4.21" fill="#A0A0A0"/><circle cx="552.3" cy="860.0" r="3.84" fill="#A0A0A0"/><circle cx="593.2" cy="860.0" r="5.27" fill="#A0A0A0"/><circle cx="634.1" cy="860.0" r="5.06" fill="#A0A0A0"/><circle cx="675.0" cy="860.0" r="3.87" fill="#A0A0A0"/><circle cx="715.9" cy="860.0" r="5.24" fill="#A0A0A0"/><circle cx="756.8" cy="860.0" r="4.71" fill="#A0A0A0"/><circle cx="797.7" cy="860.0" r="5.04" fill="#A0A0A0"/><circle cx="838.6" cy="860.0" r="4.82" fill="#A0A0A0"/><circle cx="879.5" cy="860.0" r="5.25" fill="#A0A0A0"/><circle cx="20.5" cy="900.0" r="4.42" fill="#A0A0A0"/><circle cx="61.4" cy="900.0" r="4.50" fill="#A0A0A0"/><circle cx="102.3" cy="900.0" r="3.44" fill="#A0A0A0"/><circle cx="143.2" cy="900.0" r="4.26" fill="#A0A0A0"/><circle cx="184.1" cy="900.0" r="3.99" fill="#A0A0A0"/><circle cx="225.0" cy="900.0" r="4.34" fill="#A0A0A0"/><circle cx="265.9" cy="900.0" r="3.84" fill="#A0A0A0"/><circle cx="306.8" cy="900.0" r="4.57" fill="#A0A0A0"/><circle cx="347.7" cy="900.0" r="4.03" fill="#A0A0A0"/><circle cx="388.6" cy="900.0" r="3.55" fill="#A0A0A0"/><circle cx="429.5" cy="900.0" r="3.50" fill="#A0A0A0"/><circle cx="470.5" cy="900.0" r="3.34" fill="#A0A0A0"/><circle cx="511.4" cy="900.0" r="3.93" fill="#A0A0A0"/><circle cx="552.3" cy="900.0" r="3.21" fill="#A0A0A0"/><circle cx="593.2" cy="900.0" r="3.89" fill="#A0A0A0"/><circle cx="634.1" cy="900.0" r="3.35" fill="#A0A0A0"/><circle cx="675.0" cy="900.0" r="3.93" fill="#A0A0A0"/><circle cx="715.9" cy="900.0" r="3.94" fill="#A0A0A0"/><circle cx="756.8" cy="900.0" r="4.01" fill="#A0A0A0"/><circle cx="797.7" cy="900.0" r="4.54" fill="#A0A0A0"/><circle cx="838.6" cy="900.0" r="3.12" fill="#A0A0A0"/><circle cx="879.5" cy="900.0" r="4.51" fill="#A0A0A0"/><circle cx="20.5" cy="940.0" r="3.33" fill="#A0A0A0"/><circle cx="61.4" cy="940.0" r="3.47" fill="#A0A0A0"/><circle cx="102.3" cy="940.0" r="3.61" fill="#A0A0A0"/><circle cx="143.2" cy="940.0" r="3.86" fill="#A0A0A0"/><circle cx="184.1" cy="940.0" r="3.20" fill="#A0A0A0"/><circle cx="225.0" cy="940.0" r="3.26" fill="#A0A0A0"/><circle cx="265.9" cy="940.0" r="4.03" fill="#A0A0A0"/><circle cx="306.8" cy="940.0" r="2.77" fill="#A0A0A0"/><circle cx="347.7" cy="940.0" r="3.57" fill="#A0A0A0"/><circle cx="388.6" cy="940.0" r="3.57" fill="#A0A0A0"/><circle cx="429.5" cy="940.0" r="2.71" fill="#A0A0A0"/><circle cx="470.5" cy="940.0" r="3.53" fill="#A0A0A0"/><circle cx="511.4" cy="940.0" r="3.64" fill="#A0A0A0"/><circle cx="552.3" cy="940.0" r="3.99" fill="#A0A0A0"/><circle cx="593.2" cy="940.0" r="3.14" fill="#A0A0A0"/><circle cx="634.1" cy="940.0" r="4.06" fill="#A0A0A0"/><circle cx="675.0" cy="940.0" r="3.39" fill="#A0A0A0"/><circle cx="715.9" cy="940.0" r="3.36" fill="#A0A0A0"/><circle cx="756.8" cy="940.0" r="3.94" fill="#A0A0A0"/><circle cx="797.7" cy="940.0" r="2.71" fill="#A0A0A0"/><circle cx="838.6" cy="940.0" r="3.69" fill="#A0A0A0"/><circle cx="879.5" cy="940.0" r="3.56" fill="#A0A0A0"/><circle cx="20.5" cy="980.0" r="2.62" fill="#A0A0A0"/><circle cx="61.4" cy="980.0" r="3.24" fill="#A0A0A0"/><circle cx="102.3" cy="980.0" r="2.66" fill="#A0A0A0"/><circle cx="143.2" cy="980.0" r="2.78" fill="#A0A0A0"/><circle cx="184.1" cy="980.0" r="2.84" fill="#A0A0A0"/><circle cx="225.0" cy="980.0" r="3.13" fill="#A0A0A0"/><circle cx="265.9" cy="980.0" r="2.47" fill="#A0A0A0"/><circle cx="306.8" cy="980.0" r="2.74" fill="#A0A0A0"/><circle cx="347.7" cy="980.0" r="2.72" fill="#A0A0A0"/><circle cx="388.6" cy="980.0" r="2.88" fill="#A0A0A0"/><circle cx="429.5" cy="980.0" r="3.20" fill="#A0A0A0"/><circle cx="470.5" cy="980.0" r="2.57" fill="#A0A0A0"/><circle cx="511.4" cy="980.0" r="3.20" fill="#A0A0A0"/><circle cx="552.3" cy="980.0" r="2.70" fill="#A0A0A0"/><circle cx="593.2" cy="980.0" r="2.82" fill="#A0A0A0"/><circle cx="634.1" cy="980.0" r="2.54" fill="#A0A0A0"/><circle cx="675.0" cy="980.0" r="2.82" fill="#A0A0A0"/><circle cx="715.9" cy="980.0" r="3.38" fill="#A0A0A0"/><circle cx="756.8" cy="980.0" r="3.00" fill="#A0A0A0"/><circle cx="797.7" cy="980.0" r="3.16" fill="#A0A0A0"/><circle cx="838.6" cy="980.0" r="2.61" fill="#A0A0A0"/><circle cx="879.5" cy="980.0" r="2.60" fill="#A0A0A0"/><circle cx="20.5" cy="1020.0" r="2.06" fill="#A0A0A0"/><circle cx="61.4" cy="1020.0" r="2.33" fill="#A0A0A0"/><circle cx="102.3" cy="1020.0" r="2.38" fill="#A0A0A0"/><circle cx="143.2" cy="1020.0" r="2.52" fill="#A0A0A0"/><circle cx="184.1" cy="1020.0" r="1.82" fill="#A0A0A0"/><circle cx="225.0" cy="1020.0" r="2.46" fill="#A0A0A0"/><circle cx="265.9" cy="1020.0" r="2.62" fill="#A0A0A0"/><circle cx="306.8" cy="1020.0" r="2.29" fill="#A0A0A0"/><circle cx="347.7" cy="1020.0" r="1.82" fill="#A0A0A0"/><circle cx="388.6" cy="1020.0" r="2.06" fill="#A0A0A0"/><circle cx="429.5" cy="1020.0" r="1.78" fill="#A0A0A0"/><circle cx="470.5" cy="1020.0" r="1.96" fill="#A0A0A0"/><circle cx="511.4" cy="1020.0" r="2.65" fill="#A0A0A0"/><circle cx="552.3" cy="1020.0" r="2.35" fill="#A0A0A0"/><circle cx="593.2" cy="1020.0" r="2.40" fill="#A0A0A0"/><circle cx="634.1" cy="1020.0" r="2.53" fill="#A0A0A0"/><circle cx="675.0" cy="1020.0" r="2.64" fill="#A0A0A0"/><circle cx="715.9" cy="1020.0" r="2.36" fill="#A0A0A0"/><circle cx="756.8" cy="1020.0" r="2.36" fill="#A0A0A0"/><circle cx="797.7" cy="1020.0" r="2.37" fill="#A0A0A0"/><circle cx="838.6" cy="1020.0" r="2.44" fill="#A0A0A0"/><circle cx="879.5" cy="1020.0" r="2.34" fill="#A0A0A0"/><circle cx="20.5" cy="1060.0" r="1.82" fill="#A0A0A0"/><circle cx="61.4" cy="1060.0" r="1.48" fill="#A0A0A0"/><circle cx="102.3" cy="1060.0" r="1.81" fill="#A0A0A0"/><circle cx="143.2" cy="1060.0" r="1.66" fill="#A0A0A0"/><circle cx="184.1" cy="1060.0" r="1.88" fill="#A0A0A0"/><circle cx="225.0" cy="1060.0" r="1.41" fill="#A0A0A0"/><circle cx="265.9" cy="1060.0" r="1.46" fill="#A0A0A0"/><circle cx="306.8" cy="1060.0" r="1.36" fill="#A0A0A0"/><circle cx="347.7" cy="1060.0" r="1.88" fill="#A0A0A0"/><circle cx="388.6" cy="1060.0" r="1.98" fill="#A0A0A0"/><circle cx="429.5" cy="1060.0" r="1.80" fill="#A0A0A0"/><circle cx="470.5" cy="1060.0" r="1.60" fill="#A0A0A0"/><circle cx="511.4" cy="1060.0" r="1.92" fill="#A0A0A0"/><circle cx="552.3" cy="1060.0" r="1.89" fill="#A0A0A0"/><circle cx="593.2" cy="1060.0" r="1.73" fill="#A0A0A0"/><circle cx="634.1" cy="1060.0" r="1.52" fill="#A0A0A0"/><circle cx="675.0" cy="1060.0" r="1.55" fill="#A0A0A0"/><circle cx="715.9" cy="1060.0" r="1.63" fill="#A0A0A0"/><circle cx="756.8" cy="1060.0" r="1.56" fill="#A0A0A0"/><circle cx="797.7" cy="1060.0" r="1.64" fill="#A0A0A0"/><circle cx="838.6" cy="1060.0" r="1.79" fill="#A0A0A0"/><circle cx="879.5" cy="1060.0" r="2.00" fill="#A0A0A0"/><circle cx="20.5" cy="1100.0" r="0.91" fill="#A0A0A0"/><circle cx="61.4" cy="1100.0" r="1.16" fill="#A0A0A0"/><circle cx="102.3" cy="1100.0" r="0.91" fill="#A0A0A0"/><circle cx="143.2" cy="1100.0" r="0.95" fill="#A0A0A0"/><circle cx="184.1" cy="1100.0" r="1.27" fill="#A0A0A0"/><circle cx="225.0" cy="1100.0" r="1.16" fill="#A0A0A0"/><circle cx="265.9" cy="1100.0" r="1.32" fill="#A0A0A0"/><circle cx="306.8" cy="1100.0" r="1.10" fill="#A0A0A0"/><circle cx="347.7" cy="1100.0" r="0.90" fill="#A0A0A0"/><circle cx="388.6" cy="1100.0" r="1.07" fill="#A0A0A0"/><circle cx="429.5" cy="1100.0" r="1.17" fill="#A0A0A0"/><circle cx="470.5" cy="1100.0" r="1.33" fill="#A0A0A0"/><circle cx="511.4" cy="1100.0" r="1.35" fill="#A0A0A0"/><circle cx="552.3" cy="1100.0" r="1.11" fill="#A0A0A0"/><circle cx="593.2" cy="1100.0" r="1.08" fill="#A0A0A0"/><circle cx="634.1" cy="1100.0" r="0.94" fill="#A0A0A0"/><circle cx="675.0" cy="1100.0" r="1.19" fill="#A0A0A0"/><circle cx="715.9" cy="1100.0" r="0.99" fill="#A0A0A0"/><circle cx="756.8" cy="1100.0" r="0.96" fill="#A0A0A0"/><circle cx="797.7" cy="1100.0" r="0.90" fill="#A0A0A0"/><circle cx="838.6" cy="1100.0" r="0.89" fill="#A0A0A0"/><circle cx="879.5" cy="1100.0" r="1.21" fill="#A0A0A0"/><circle cx="20.5" cy="1140.0" r="0.47" fill="#A0A0A0"/><circle cx="61.4" cy="1140.0" r="0.67" fill="#A0A0A0"/><circle cx="102.3" cy="1140.0" r="0.47" fill="#A0A0A0"/><circle cx="143.2" cy="1140.0" r="0.65" fill="#A0A0A0"/><circle cx="184.1" cy="1140.0" r="0.47" fill="#A0A0A0"/><circle cx="225.0" cy="1140.0" r="0.45" fill="#A0A0A0"/><circle cx="265.9" cy="1140.0" r="0.61" fill="#A0A0A0"/><circle cx="306.8" cy="1140.0" r="0.50" fill="#A0A0A0"/><circle cx="347.7" cy="1140.0" r="0.62" fill="#A0A0A0"/><circle cx="388.6" cy="1140.0" r="0.49" fill="#A0A0A0"/><circle cx="429.5" cy="1140.0" r="0.46" fill="#A0A0A0"/><circle cx="470.5" cy="1140.0" r="0.63" fill="#A0A0A0"/><circle cx="511.4" cy="1140.0" r="0.61" fill="#A0A0A0"/><circle cx="552.3" cy="1140.0" r="0.65" fill="#A0A0A0"/><circle cx="593.2" cy="1140.0" r="0.62" fill="#A0A0A0"/><circle cx="634.1" cy="1140.0" r="0.46" fill="#A0A0A0"/><circle cx="675.0" cy="1140.0" r="0.59" fill="#A0A0A0"/><circle cx="715.9" cy="1140.0" r="0.61" fill="#A0A0A0"/><circle cx="756.8" cy="1140.0" r="0.55" fill="#A0A0A0"/><circle cx="797.7" cy="1140.0" r="0.67" fill="#A0A0A0"/><circle cx="838.6" cy="1140.0" r="0.50" fill="#A0A0A0"/><circle cx="879.5" cy="1140.0" r="0.67" fill="#A0A0A0"/></g><path d="M-45,888 L945,624" stroke="#D99B26" stroke-width="16.8" fill="none" opacity="0.95"/><rect width="900" height="1200" fill="url(#vig22)"/></g></svg>